<svg xmlns="http://www.w3.org/2000/svg" width="1em" height="1em" fill="none" viewBox="0 0 20 20" id="feedback-like-button-for-feedback-67179109e4b0ecf08a88d305-icon"><path stroke="#000000" stroke-linecap="round" stroke-linejoin="round" stroke-width="1.5" d="M5.834 18.333V9.167m-4.167 1.666v5.834c0 .92.746 1.666 1.667 1.666h11.188a2.5 2.5 0 0 0 2.471-2.12l.898-5.833A2.5 2.5 0 0 0 15.42 7.5H12.5a.833.833 0 0 1-.833-.833V3.72c0-1.134-.92-2.054-2.055-2.054-.27 0-.516.159-.626.406L6.054 8.672a.83.83 0 0 1-.762.495H3.334c-.92 0-1.667.746-1.667 1.666"></path></svg>