<svg width="12" height="12" id="Layer_1" data-name="Layer 1" xmlns="http://www.w3.org/2000/svg" viewBox="0 0 100 100" class="share-icon"><path d="M94.51,39.22a.28.28,0,0,0,0-.09v0h0v-.25c0-.06,0-.13,0-.19s0-.09,0-.13h0a3.13,3.13,0,0,0-1-2L70.61,13.67c-.83-.83-1.66-1.67-2.5-2.49a3,3,0,0,0-3.56-.57,3.14,3.14,0,0,0-1.8,3q0,6.16,0,12.33c0,.23-.07.27-.29.27H51.28q-4.76,0-9.5.43c-2.12.2-4.23.47-6.32.85A54.76,54.76,0,0,0,25.79,30a35.34,35.34,0,0,0-8.34,4.38A26.18,26.18,0,0,0,8.16,46.27,36.86,36.86,0,0,0,6,55.64c-.23,1.91-.32,3.84-.38,5.77a32.1,32.1,0,0,0,.61,7A58.75,58.75,0,0,0,8.25,76c1.29,3.8,2.87,7.48,4.51,11.14A8.41,8.41,0,0,0,13.83,89a1.59,1.59,0,0,0,1.65.64,1.5,1.5,0,0,0,1.13-1.12,2.6,2.6,0,0,0,0-1.11c-.19-1.38-.28-2.77-.35-4.16a54.88,54.88,0,0,1,.23-9.76,33.4,33.4,0,0,1,1.71-7.25,18.41,18.41,0,0,1,4-6.63,22.51,22.51,0,0,1,9.26-5.71A44.83,44.83,0,0,1,39,52.32c2-.29,4-.46,6-.57,2.27-.13,4.55-.16,6.83-.17H62.52c.19,0,.24.05.24.23q0,3.54,0,7.06c0,1.79,0,3.58,0,5.36a3.17,3.17,0,0,0,5.53,2.19l19-19,6.31-6.3a3.19,3.19,0,0,0,.94-1.79s0,0,0-.07Z" fill="#9b9898" class="cls-2"></path></svg>