<?xml version="1.0" encoding="UTF-8"?>
<svg version="1.1" xmlns="http://www.w3.org/2000/svg" xmlns:xlink="http://www.w3.org/1999/xlink" viewBox="0 0 230.09 53.57">
  <g>
    <path fill="#fff" d="M61.69,37.09V35.86c0-14.52-8.49-23.45-20.9-23.45a20.38,20.38,0,0,0-14.38,6.1,20,20,0,0,0-5.95,14.3,20.55,20.55,0,0,0,5.73,14.44,19.29,19.29,0,0,0,14.74,6.24c8.71,0,15.17-4.13,19-12.26H47.25a8.55,8.55,0,0,1-6,2.17c-5,0-8-2.17-9-6.31ZM50.15,29H31.93c.8-3.7,4.21-6.17,9-6.17,4.57,0,7.84,2.18,9.22,6.17"/>
    <path fill="#fff" d="M105.09,37.09V35.86c0-14.52-8.49-23.45-20.91-23.45a20.38,20.38,0,0,0-14.37,6.1,20,20,0,0,0-6,14.3,20.55,20.55,0,0,0,5.73,14.44A19.29,19.29,0,0,0,84.33,53.5c8.71,0,15.17-4.14,19-12.27H90.64a8.52,8.52,0,0,1-6,2.17c-5,0-8-2.17-9-6.31ZM93.55,29H75.33c.8-3.7,4.21-6.17,9-6.17,4.57,0,7.84,2.18,9.22,6.17"/>
    <path fill="#fff" d="M4.21,22.28V52.55H15.46V22.28H20V13.57H15.46v-.94c0-3.56.8-4.72,4.28-4.72H20V.07C19.38.07,18.8,0,18.22,0,8.64,0,4.14,3.77,4.14,12.12c0,.44.07.94.07,1.45H0v8.71Z"/>
    <path fill="#fff" d="M109.45,22.28V52.55H120.7V22.28h4.57V13.57H120.7v-.94c0-3.56.79-4.72,4.28-4.72h.29V.07C124.62.07,124,0,123.45,0c-9.58,0-14.08,3.77-14.08,12.12,0,.44.08.94.08,1.45h-4.21v8.71Z"/>
    <path fill="#fff" d="M166.41,32.81A20.59,20.59,0,0,0,131.2,18.65,20,20,0,0,0,125.25,33,20.32,20.32,0,0,0,131,47.32a19.22,19.22,0,0,0,14.73,6.25,20.22,20.22,0,0,0,14.81-6.1,19.85,19.85,0,0,0,5.88-14.66M155,33.1a9.22,9.22,0,1,1-18.43,0,9.23,9.23,0,1,1,18.43,0"/>
    <path fill="#fddc47" d="M184,26.48a11,11,0,0,1-10.27-10.3h24.15v-.27c0-9.48-6.06-15.8-14.44-15.8C174.6.11,168.6,6.59,168.6,15a14.78,14.78,0,0,0,14.7,15c6.16,0,11.06-3.42,13.7-9.75h-2.44a11,11,0,0,1-9.9,6.27l-.65,0"/>
    <path fill="#fddc47" d="M214.67,26.48a11,11,0,0,0,10.27-10.3H200.79v-.27c0-9.48,6.06-15.8,14.44-15.8,8.85,0,14.86,6.48,14.86,14.91a14.79,14.79,0,0,1-14.7,15c-6.17,0-11.07-3.42-13.7-9.75h2.44A10.93,10.93,0,0,0,214,26.5l.65,0"/>
  </g>
</svg>